<svg width="32" height="32" viewBox="0 0 32 32" fill="none" xmlns="http://www.w3.org/2000/svg">
  <rect width="32" height="32" rx="8" fill="url(#gradient)" />
  <path d="M4 28 L8 26 L12 24 L16 22 L20 20 L24 21 L28 18" fill="none" stroke="white" stroke-width="2" stroke-linecap="round" stroke-linejoin="round" stroke-opacity="0.7" />
  <path d="M4 28 L8 24 L12 20 L16 18 L20 14 L24 16 L28 10" fill="none" stroke="white" stroke-width="2" stroke-linecap="round" stroke-linejoin="round" stroke-opacity="0.7" />
  <path d="M4 28 L8 22 L12 18 L16 12 L20 10 L24 8 L28 4" fill="none" stroke="white" stroke-width="2" stroke-linecap="round" stroke-linejoin="round" stroke-opacity="0.7" />
  <circle cx="28" cy="18" r="1.5" fill="white" fill-opacity="0.7" />
  <circle cx="28" cy="10" r="1.5" fill="white" fill-opacity="0.7" />
  <circle cx="28" cy="4" r="1.5" fill="white" fill-opacity="0.7" />
  <defs>
    <linearGradient id="gradient" x1="0" y1="0" x2="32" y2="32" gradientUnits="userSpaceOnUse">
      <stop stop-color="#6D28D9" />
      <stop offset="0.33" stop-color="#2563EB" />
      <stop offset="0.66" stop-color="#059669" />
      <stop offset="1" stop-color="#047857" />
    </linearGradient>
  </defs>
</svg>
